<svg id="svg" version="1.1" xmlns="http://www.w3.org/2000/svg" xmlns:xlink="http://www.w3.org/1999/xlink" width="400" height="400" viewBox="0, 0, 400,400"><g id="svgg"><path id="path0" d="M291.000 105.185 C 290.340 105.361,288.900 105.528,287.800 105.555 C 286.700 105.582,285.170 105.762,284.400 105.954 C 283.630 106.146,281.920 106.531,280.600 106.809 C 277.420 107.481,272.084 109.064,269.800 110.013 C 260.056 114.064,253.115 119.030,246.338 126.800 C 243.639 129.894,238.400 136.594,238.400 136.951 C 238.400 137.032,236.450 140.046,234.066 143.649 C 231.683 147.252,228.055 152.900,226.005 156.200 C 217.677 169.607,216.677 170.633,212.000 170.570 C 207.640 170.511,204.153 167.859,197.579 159.600 C 194.462 155.685,186.504 146.049,186.016 145.600 C 185.896 145.490,184.449 143.781,182.799 141.803 C 181.150 139.825,177.657 135.685,175.037 132.603 C 172.417 129.521,169.447 126.019,168.437 124.820 C 166.401 122.405,163.909 119.509,163.600 119.200 C 163.490 119.090,162.717 118.149,161.881 117.110 C 161.046 116.070,160.145 114.990,159.880 114.710 C 159.614 114.429,158.627 113.269,157.688 112.132 C 155.481 109.461,152.369 107.419,149.600 106.825 C 146.761 106.216,77.051 106.383,76.451 107.000 C 76.196 107.262,76.758 108.158,78.081 109.600 C 79.802 111.476,85.189 117.656,88.715 121.800 C 89.277 122.460,90.291 123.636,90.968 124.414 C 91.646 125.192,93.010 126.804,94.000 127.996 C 94.990 129.187,96.889 131.431,98.220 132.981 C 99.550 134.532,102.155 137.600,104.007 139.800 C 105.859 142.000,107.560 144.000,107.787 144.245 C 108.014 144.490,110.450 147.352,113.200 150.606 C 118.595 156.989,119.975 158.603,131.166 171.627 C 135.218 176.342,139.268 181.020,140.166 182.022 C 141.065 183.024,143.834 186.207,146.321 189.094 C 148.807 191.982,151.553 195.122,152.422 196.072 C 153.291 197.023,155.037 199.001,156.301 200.470 C 159.483 204.164,159.441 204.180,159.435 199.257 C 159.421 188.763,164.578 183.262,175.633 181.976 C 180.742 181.382,207.002 181.642,207.653 182.293 C 208.071 182.711,206.139 185.698,195.040 201.800 C 187.374 212.921,181.440 221.572,180.800 222.560 C 178.378 226.300,154.513 261.807,154.187 262.157 C 153.960 262.401,153.338 263.230,152.806 264.000 C 152.274 264.770,151.733 265.490,151.605 265.600 C 151.476 265.710,150.273 267.150,148.930 268.800 C 144.804 273.872,139.276 278.715,134.965 281.036 C 134.505 281.283,132.938 282.140,131.483 282.940 C 126.296 285.790,118.153 288.657,112.600 289.589 C 105.582 290.766,104.656 292.194,110.400 292.980 C 111.390 293.116,113.100 293.404,114.200 293.621 C 131.977 297.126,153.852 296.514,167.600 292.126 C 181.574 287.667,194.537 277.272,203.485 263.354 C 204.282 262.113,229.751 223.932,230.382 223.031 C 234.728 216.827,236.905 215.200,240.857 215.200 C 245.205 215.200,246.902 216.682,259.746 231.695 C 268.165 241.535,267.501 240.768,273.834 248.000 C 276.434 250.970,278.841 253.670,279.182 254.000 C 280.894 255.657,286.396 261.994,287.320 263.374 C 289.105 266.039,289.930 265.932,266.272 266.108 C 243.670 266.276,243.426 266.296,239.200 268.321 C 235.798 269.952,227.200 279.623,227.200 281.819 C 227.200 281.928,226.778 282.688,226.263 283.509 C 225.747 284.329,224.546 286.260,223.592 287.800 C 222.639 289.340,221.045 291.452,220.051 292.493 L 218.243 294.386 240.422 294.522 C 287.424 294.811,325.740 294.434,326.323 293.678 C 327.214 292.522,326.776 232.803,325.859 230.463 C 324.054 225.855,322.376 223.596,314.223 214.800 C 313.102 213.590,310.838 211.070,309.192 209.200 C 307.546 207.330,306.104 205.710,305.987 205.600 C 305.870 205.490,303.510 202.790,300.743 199.600 C 287.929 184.826,282.426 181.453,268.800 180.019 C 263.389 179.449,262.000 179.185,262.000 178.725 C 262.000 177.871,263.488 175.208,266.781 170.167 C 268.662 167.290,270.380 164.638,270.600 164.274 C 293.779 125.978,307.232 114.294,330.900 111.898 C 337.694 111.210,336.908 110.497,326.200 107.635 C 323.454 106.902,318.328 105.918,315.200 105.524 C 311.297 105.032,292.555 104.770,291.000 105.185 " stroke="none" fill="#fafbfb" fill-rule="evenodd"></path><path id="path1" d="M0.000 200.000 L 0.000 400.000 200.000 400.000 L 400.000 400.000 400.000 200.000 L 400.000 0.000 200.000 0.000 L 0.000 0.000 0.000 200.000 M216.200 91.519 C 217.036 93.261,218.000 93.750,218.000 92.433 C 218.000 90.483,218.211 90.400,223.163 90.400 C 228.120 90.400,228.800 90.626,228.800 92.270 L 228.800 93.180 242.600 93.290 L 256.400 93.400 256.400 91.724 C 256.400 89.968,257.024 89.077,257.460 90.212 C 257.667 90.751,258.045 90.824,259.507 90.605 C 261.184 90.353,261.396 90.429,262.763 91.764 C 263.906 92.880,264.658 93.245,266.212 93.437 C 268.629 93.737,270.400 94.429,270.400 95.074 C 270.400 95.797,271.211 96.149,271.715 95.645 C 272.446 94.914,277.889 95.073,278.317 95.838 C 278.513 96.188,279.287 96.605,280.037 96.763 C 281.013 96.968,281.367 97.241,281.282 97.725 C 281.197 98.216,281.450 98.400,282.209 98.400 C 283.072 98.400,283.210 98.539,283.000 99.200 C 282.817 99.778,282.928 100.000,283.402 100.000 C 284.524 100.000,283.909 101.387,282.726 101.524 C 282.139 101.592,281.443 101.907,281.180 102.224 C 280.917 102.541,280.364 102.800,279.951 102.800 C 279.538 102.800,279.200 102.969,279.200 103.176 C 279.200 103.866,279.958 104.033,280.774 103.524 C 281.426 103.116,281.678 103.120,282.090 103.545 C 282.507 103.973,282.447 104.045,281.761 103.935 C 280.700 103.764,280.602 104.202,281.500 105.100 C 282.341 105.941,284.173 105.827,283.838 104.954 C 283.649 104.463,284.190 104.401,287.307 104.558 C 289.732 104.681,290.382 104.640,289.200 104.439 C 286.392 103.963,309.355 104.276,313.400 104.770 C 321.143 105.714,333.033 108.488,335.100 109.833 C 337.175 111.183,335.707 112.400,332.003 112.400 C 330.656 112.400,328.800 112.572,327.877 112.782 C 319.085 114.784,315.682 115.925,310.031 118.765 C 305.345 121.120,301.890 123.647,297.471 127.952 C 294.521 130.826,292.068 133.700,293.121 133.049 C 293.447 132.848,293.600 133.090,293.600 133.806 C 293.600 134.600,293.428 134.821,292.900 134.706 C 292.515 134.621,292.245 134.338,292.300 134.076 C 292.458 133.322,292.070 133.521,291.574 134.448 C 291.206 135.135,291.223 135.235,291.660 134.971 C 292.111 134.700,292.112 134.755,291.667 135.304 C 291.046 136.070,291.393 137.561,292.358 138.266 C 292.710 138.524,292.854 138.879,292.678 139.056 C 292.501 139.232,292.173 139.112,291.948 138.788 C 291.605 138.295,291.564 138.293,291.695 138.775 C 291.952 139.729,292.779 139.726,293.133 138.769 C 293.414 138.009,293.504 137.974,293.720 138.536 C 294.007 139.285,298.400 139.533,298.400 138.800 C 298.400 138.580,298.745 138.400,299.167 138.400 C 299.588 138.400,300.014 138.175,300.113 137.900 C 300.235 137.561,300.550 137.690,301.093 138.300 C 301.533 138.795,302.188 139.200,302.547 139.200 C 302.933 139.200,303.200 139.527,303.200 140.000 C 303.200 140.533,302.933 140.800,302.400 140.800 C 301.867 140.800,301.600 140.533,301.600 140.000 C 301.600 139.467,301.333 139.200,300.800 139.200 C 300.267 139.200,300.000 139.467,300.000 140.000 C 300.000 140.533,300.267 140.800,300.800 140.800 C 301.348 140.800,301.600 141.067,301.600 141.647 C 301.600 142.287,301.789 142.444,302.374 142.291 C 303.350 142.036,303.600 142.671,303.600 145.407 C 303.600 147.955,304.147 149.600,304.995 149.600 C 305.334 149.600,306.013 150.438,306.505 151.462 C 306.997 152.486,307.895 153.822,308.500 154.431 C 309.757 155.697,309.812 155.957,309.043 157.008 C 308.570 157.655,308.390 157.690,307.843 157.236 C 307.275 156.764,307.200 156.853,307.200 158.000 C 307.200 159.052,307.303 159.212,307.747 158.844 C 308.163 158.498,308.416 158.537,308.803 159.004 C 309.084 159.342,309.610 159.524,309.974 159.408 C 310.478 159.248,310.742 159.601,311.087 160.895 C 311.562 162.675,311.242 163.600,310.151 163.600 C 309.554 163.600,309.362 166.620,309.906 167.446 C 310.434 168.247,312.000 168.532,312.000 167.827 C 312.000 167.467,312.340 167.200,312.800 167.200 C 313.240 167.200,313.600 167.380,313.600 167.600 C 313.600 167.820,313.420 168.000,313.200 168.000 C 312.980 168.000,312.800 168.439,312.800 168.976 C 312.800 169.513,312.980 170.064,313.200 170.200 C 313.420 170.336,313.600 170.819,313.600 171.273 C 313.600 171.862,313.743 171.993,314.100 171.732 C 315.541 170.676,318.215 171.132,318.716 172.518 C 319.592 174.941,318.688 176.747,317.251 175.446 C 316.225 174.517,315.999 174.635,316.004 176.100 C 316.012 178.225,316.475 180.400,316.921 180.400 C 317.732 180.400,318.800 179.061,318.805 178.038 C 318.815 176.213,319.258 175.200,320.047 175.200 C 320.638 175.200,320.800 175.495,320.800 176.576 C 320.800 177.333,320.980 178.064,321.200 178.200 C 321.420 178.336,321.600 179.225,321.600 180.175 C 321.600 181.247,321.835 182.097,322.220 182.416 C 322.561 182.699,323.234 183.756,323.716 184.765 C 324.198 185.774,324.646 186.712,324.712 186.849 C 324.779 186.986,324.465 187.194,324.016 187.312 C 322.298 187.761,323.258 192.800,325.062 192.800 C 325.715 192.800,325.774 194.066,325.150 194.690 C 324.592 195.248,325.067 199.729,325.647 199.371 C 326.865 198.618,327.200 200.090,327.200 206.189 C 327.200 209.670,327.393 212.834,327.650 213.571 C 328.328 215.517,327.616 216.800,325.858 216.800 C 324.536 216.800,323.339 217.605,323.870 218.137 C 324.015 218.282,324.643 218.400,325.267 218.400 C 326.432 218.400,326.918 219.633,325.981 220.212 C 325.750 220.354,325.591 220.770,325.627 221.135 C 325.802 222.917,325.637 223.230,324.800 222.707 C 324.360 222.432,324.000 221.981,324.000 221.704 C 324.000 221.427,323.820 221.200,323.600 221.200 C 322.464 221.200,324.297 223.612,325.502 223.703 C 326.277 223.761,326.308 223.838,325.786 224.416 C 325.464 224.772,325.200 225.274,325.200 225.531 C 325.200 225.789,325.026 226.000,324.813 226.000 C 324.599 226.000,324.535 226.285,324.668 226.634 C 324.864 227.144,324.978 227.163,325.252 226.734 C 325.487 226.365,325.578 226.509,325.546 227.200 C 325.521 227.750,325.814 229.010,326.198 230.000 C 327.177 232.527,327.496 243.012,327.443 270.935 L 327.400 293.669 326.456 294.435 C 325.116 295.521,218.259 295.651,217.843 294.567 C 217.399 293.410,217.591 292.857,218.500 292.679 L 219.400 292.502 218.528 292.211 C 218.048 292.052,217.562 291.679,217.449 291.382 C 217.301 290.997,216.923 290.934,216.121 291.159 C 215.504 291.332,214.345 291.395,213.545 291.299 C 212.627 291.188,211.732 291.357,211.120 291.758 C 210.188 292.369,210.099 292.340,208.797 290.997 C 207.788 289.956,207.106 289.600,206.122 289.600 C 204.782 289.600,204.195 288.421,205.219 287.788 C 205.511 287.608,205.510 287.373,205.215 287.018 C 204.981 286.737,204.821 286.168,204.859 285.753 C 205.078 283.331,204.776 281.919,203.996 281.715 C 203.097 281.480,202.612 280.097,202.899 278.593 C 203.029 277.913,202.910 277.600,202.521 277.600 C 202.208 277.600,202.067 277.415,202.207 277.189 C 202.346 276.964,202.762 276.829,203.130 276.889 C 203.564 276.961,203.845 276.683,203.928 276.100 C 203.998 275.605,203.863 275.200,203.628 275.200 C 203.393 275.200,203.200 274.756,203.200 274.213 C 203.200 273.552,203.377 273.293,203.736 273.431 C 204.031 273.544,204.511 273.348,204.804 272.996 C 205.250 272.458,205.244 272.375,204.768 272.477 C 203.761 272.695,203.770 269.351,204.778 268.812 C 205.825 268.251,205.836 267.355,204.800 267.084 C 204.349 266.966,204.000 266.538,204.000 266.104 C 204.000 265.680,203.883 265.217,203.741 265.074 C 203.386 264.719,201.961 266.414,202.238 266.862 C 202.360 267.059,202.221 267.170,201.930 267.110 C 201.638 267.049,201.445 267.225,201.500 267.500 C 201.555 267.775,201.445 268.000,201.255 268.000 C 201.066 268.000,199.901 269.319,198.666 270.931 C 189.055 283.478,175.164 291.739,158.068 295.074 C 150.886 296.475,129.953 296.707,122.000 295.474 C 114.509 294.313,108.291 293.189,106.877 292.742 C 105.257 292.229,105.211 290.796,106.800 290.356 C 107.350 290.204,107.530 290.061,107.200 290.037 C 105.809 289.939,109.140 288.752,110.599 288.826 C 111.480 288.871,112.740 288.862,113.400 288.806 L 114.600 288.705 113.400 288.417 L 112.200 288.128 113.300 287.674 C 113.905 287.424,114.400 287.023,114.400 286.783 C 114.400 286.535,114.731 286.451,115.166 286.589 C 115.588 286.723,116.049 286.644,116.192 286.413 C 116.561 285.815,115.237 285.403,114.693 285.947 C 114.444 286.196,113.854 286.400,113.382 286.400 C 112.910 286.400,112.198 286.760,111.800 287.200 C 110.982 288.104,109.990 288.230,109.280 287.520 C 108.617 286.857,108.679 286.496,109.500 286.242 C 109.885 286.123,109.157 286.098,107.882 286.186 C 105.771 286.332,105.584 286.280,105.798 285.605 C 106.058 284.787,105.227 284.345,102.900 284.061 C 102.119 283.966,102.313 283.282,103.200 283.000 C 103.640 282.860,104.000 282.488,104.000 282.173 C 104.000 281.858,104.289 281.600,104.643 281.600 C 105.065 281.600,105.202 281.382,105.043 280.967 C 104.909 280.619,104.800 280.157,104.800 279.940 C 104.800 279.723,104.440 279.660,104.000 279.800 C 103.299 280.022,103.200 279.872,103.200 278.590 C 103.200 277.462,103.016 277.077,102.400 276.916 C 101.463 276.671,101.322 275.281,102.200 274.945 C 102.530 274.818,102.800 274.225,102.800 273.627 C 102.800 272.255,104.535 270.488,105.288 271.094 C 105.917 271.600,108.403 271.269,108.625 270.650 C 108.714 270.402,108.834 268.585,108.893 266.611 C 108.989 263.399,109.090 262.978,109.857 262.596 C 111.373 261.841,112.000 261.125,112.000 260.148 C 112.000 259.293,111.916 259.245,111.199 259.694 C 110.143 260.353,109.044 259.687,108.876 258.286 C 108.783 257.512,108.457 257.188,107.576 256.995 C 106.243 256.702,106.053 255.847,107.071 254.722 C 107.585 254.154,107.631 253.871,107.271 253.511 C 106.622 252.862,106.681 251.796,107.400 251.200 C 107.730 250.926,108.000 250.094,108.000 249.351 C 108.000 248.417,108.185 248.000,108.600 248.000 C 108.930 248.000,109.200 247.820,109.200 247.600 C 109.200 247.380,108.876 247.200,108.480 247.200 C 107.665 247.200,105.608 246.320,105.603 245.970 C 105.596 245.430,107.481 244.059,108.400 243.935 C 109.720 243.757,109.999 241.893,108.890 240.658 C 108.466 240.186,108.008 239.485,107.872 239.100 C 107.587 238.293,106.552 238.162,106.288 238.900 C 106.190 239.175,105.955 239.255,105.766 239.078 C 105.578 238.901,105.622 238.631,105.865 238.478 C 106.527 238.061,106.755 232.000,106.108 232.000 C 105.828 232.000,105.600 231.713,105.600 231.363 C 105.600 231.012,105.240 230.631,104.800 230.516 C 103.849 230.267,103.786 229.875,104.592 229.207 C 105.850 228.163,107.076 224.293,106.100 224.447 C 105.041 224.615,104.716 224.383,105.196 223.804 C 105.468 223.477,105.850 223.307,106.045 223.428 C 106.619 223.783,106.496 207.056,105.920 206.480 C 105.547 206.107,105.547 205.893,105.920 205.520 C 106.666 204.774,106.488 203.548,105.600 203.316 C 104.689 203.078,104.496 201.600,105.376 201.600 C 106.305 201.600,106.564 200.779,106.467 198.145 C 106.397 196.267,106.573 195.316,107.195 194.209 C 108.043 192.699,107.974 192.000,106.976 192.000 C 105.898 192.000,106.164 182.102,107.275 180.920 C 107.911 180.244,108.029 179.869,107.710 179.550 C 107.081 178.921,106.400 179.480,106.400 180.624 C 106.400 181.856,105.982 181.858,104.828 180.630 C 103.820 179.557,103.989 178.936,105.439 178.385 C 106.626 177.934,106.748 176.416,105.620 176.121 C 105.013 175.962,104.814 175.506,104.720 174.059 C 104.602 172.233,104.574 172.198,103.134 172.078 C 100.050 171.821,100.987 170.193,104.123 170.360 C 106.234 170.472,106.612 169.790,104.874 169.005 C 103.926 168.577,103.773 168.188,104.400 167.800 C 105.206 167.302,104.862 165.926,104.000 166.200 C 102.795 166.582,102.864 164.341,104.074 163.795 C 105.707 163.057,105.405 162.400,103.433 162.400 C 101.426 162.400,100.697 161.130,102.442 160.673 C 103.666 160.353,103.151 159.421,101.669 159.275 C 100.476 159.157,100.400 159.053,100.400 157.551 C 100.400 156.672,100.236 156.054,100.036 156.178 C 99.504 156.507,98.400 155.995,98.400 155.419 C 98.400 155.147,98.040 154.598,97.600 154.200 C 96.958 153.619,96.800 152.968,96.800 150.901 C 96.800 148.675,96.693 148.297,96.012 148.119 C 95.498 147.985,95.255 147.618,95.312 147.062 C 95.369 146.512,95.082 146.069,94.500 145.811 C 93.729 145.467,93.600 145.104,93.600 143.268 C 93.600 141.439,93.479 141.093,92.774 140.909 C 92.076 140.727,91.981 140.468,92.162 139.247 C 93.104 132.874,92.882 130.950,91.100 130.032 C 89.990 129.460,89.574 128.027,90.500 127.968 C 90.900 127.943,90.900 127.896,90.500 127.735 C 90.225 127.624,90.000 127.305,90.000 127.025 C 90.000 126.746,89.550 126.031,89.000 125.438 C 88.450 124.844,88.000 124.210,88.000 124.028 C 88.000 123.847,87.736 123.479,87.413 123.211 C 87.090 122.943,86.839 122.606,86.856 122.462 C 86.954 121.624,86.203 120.400,85.592 120.400 C 85.189 120.400,84.682 119.921,84.427 119.300 C 83.468 116.963,83.017 116.352,77.907 110.449 C 73.595 105.467,70.977 105.817,112.695 105.808 C 140.236 105.802,147.631 105.695,147.783 105.300 C 147.888 105.025,147.783 104.800,147.549 104.800 C 147.315 104.800,146.646 104.465,146.062 104.055 C 144.094 102.676,140.800 102.543,140.800 103.843 C 140.800 104.491,138.586 104.625,138.200 104.000 C 138.064 103.780,136.878 103.600,135.564 103.600 C 133.145 103.600,131.906 102.622,132.777 101.400 C 133.162 100.859,132.894 98.334,132.398 97.838 C 131.728 97.168,131.950 96.800,133.027 96.800 C 133.867 96.800,134.008 96.656,133.804 96.012 C 133.591 95.343,133.828 95.154,135.365 94.767 C 136.361 94.516,137.383 94.061,137.637 93.756 C 137.890 93.450,138.346 93.200,138.649 93.200 C 138.952 93.200,139.200 92.930,139.200 92.600 C 139.200 92.267,139.556 92.000,140.000 92.000 C 140.444 92.000,140.800 92.267,140.800 92.600 C 140.800 92.930,140.980 93.200,141.200 93.200 C 141.420 93.200,141.600 92.930,141.600 92.600 C 141.600 92.200,142.000 92.000,142.800 92.000 C 143.578 92.000,144.000 92.203,144.000 92.576 C 144.000 93.586,144.830 93.711,145.755 92.842 C 146.884 91.782,147.845 91.764,148.116 92.800 C 148.404 93.900,150.279 93.853,151.490 92.716 L 152.431 91.832 152.668 92.738 C 152.820 93.320,153.113 93.565,153.485 93.423 C 153.804 93.300,154.501 93.200,155.033 93.200 C 155.603 93.200,156.000 92.966,156.000 92.630 C 156.000 91.677,162.394 91.549,163.264 92.485 C 163.629 92.878,164.372 93.200,164.915 93.200 C 166.177 93.200,167.123 94.237,166.463 94.897 C 165.806 95.554,165.889 96.000,166.669 96.000 C 167.475 96.000,168.800 94.869,168.800 94.181 C 168.800 93.404,169.798 93.200,173.600 93.200 C 177.402 93.200,178.400 93.404,178.400 94.181 C 178.400 94.901,179.876 96.124,180.375 95.816 C 180.609 95.671,180.800 95.133,180.800 94.619 C 180.800 93.222,181.022 93.200,195.433 93.200 L 208.800 93.200 208.800 92.280 C 208.800 90.870,209.565 90.400,211.856 90.400 C 213.009 90.400,214.070 90.210,214.213 89.979 C 214.665 89.248,215.373 89.797,216.200 91.519 M126.400 102.000 C 126.400 102.220,126.040 102.400,125.600 102.400 C 125.160 102.400,124.800 102.220,124.800 102.000 C 124.800 101.780,125.160 101.600,125.600 101.600 C 126.040 101.600,126.400 101.780,126.400 102.000 M147.400 103.600 C 147.536 103.820,148.007 104.000,148.447 104.000 C 148.887 104.000,149.136 103.820,149.000 103.600 C 148.864 103.380,148.393 103.200,147.953 103.200 C 147.513 103.200,147.264 103.380,147.400 103.600 M124.300 104.500 C 124.191 104.828,123.215 105.014,121.467 105.040 C 118.522 105.084,117.812 104.535,120.500 104.293 C 124.088 103.970,124.470 103.991,124.300 104.500 M276.400 104.688 C 275.140 104.914,274.626 105.395,275.000 106.000 C 275.209 106.338,275.412 106.348,275.725 106.035 C 276.419 105.341,278.422 105.477,278.145 106.198 C 277.959 106.684,278.168 106.749,279.258 106.541 C 280.889 106.230,281.235 106.000,280.070 106.000 C 279.595 106.000,278.982 105.640,278.707 105.200 C 278.432 104.760,278.026 104.425,277.804 104.454 C 277.582 104.484,276.950 104.590,276.400 104.688 M150.200 105.992 L 149.000 106.244 150.400 106.475 C 151.903 106.722,152.372 106.582,151.773 106.064 C 151.568 105.886,150.860 105.854,150.200 105.992 M300.800 134.843 C 300.800 135.039,300.440 135.200,300.000 135.200 C 299.220 135.200,298.958 134.776,299.439 134.294 C 299.760 133.974,300.800 134.393,300.800 134.843 M296.400 137.000 C 296.825 137.512,296.714 137.600,295.649 137.600 C 294.311 137.600,293.942 136.978,295.100 136.676 C 295.485 136.575,295.823 136.472,295.851 136.446 C 295.879 136.421,296.126 136.670,296.400 137.000 M288.004 138.995 C 287.703 139.358,287.668 139.600,287.918 139.600 C 288.146 139.600,288.424 139.375,288.535 139.100 C 288.656 138.801,288.750 138.882,288.768 139.300 C 288.800 139.992,289.600 140.328,289.600 139.649 C 289.600 138.827,288.513 138.381,288.004 138.995 M285.992 141.810 C 285.714 142.145,285.602 142.535,285.743 142.676 C 285.884 142.818,286.000 142.713,286.000 142.443 C 286.000 142.173,286.180 142.064,286.400 142.200 C 286.620 142.336,286.800 142.167,286.800 141.824 C 286.800 141.042,286.631 141.039,285.992 141.810 M101.600 168.027 C 101.600 168.452,101.330 168.800,101.000 168.800 C 100.670 168.800,100.400 168.620,100.400 168.400 C 100.400 168.180,100.130 168.000,99.800 168.000 C 98.642 168.000,99.213 167.321,100.400 167.288 C 101.331 167.261,101.600 167.427,101.600 168.027 M265.500 179.089 C 266.215 179.178,267.385 179.178,268.100 179.089 C 268.815 179.001,268.230 178.928,266.800 178.928 C 265.370 178.928,264.785 179.001,265.500 179.089 M160.148 198.800 C 160.148 201.110,160.214 202.055,160.295 200.900 C 160.376 199.745,160.376 197.855,160.295 196.700 C 160.214 195.545,160.148 196.490,160.148 198.800 M238.400 216.016 C 237.773 216.226,238.370 216.266,240.000 216.123 C 241.430 215.997,242.675 215.828,242.767 215.747 C 243.095 215.458,239.380 215.686,238.400 216.016 M235.559 217.573 C 234.776 218.218,233.642 219.433,233.039 220.273 L 231.942 221.800 233.166 220.400 C 233.840 219.630,235.068 218.418,235.895 217.706 C 237.774 216.090,237.493 215.979,235.559 217.573 M318.400 218.600 C 319.146 219.370,319.829 220.000,319.918 220.000 C 320.254 220.000,317.782 217.256,317.422 217.229 C 317.213 217.213,317.654 217.830,318.400 218.600 M322.139 218.986 C 322.283 219.360,322.400 219.825,322.400 220.020 C 322.400 220.215,322.670 220.271,323.001 220.144 C 323.352 220.009,323.928 220.305,324.388 220.857 L 325.173 221.800 325.187 220.253 C 325.199 218.862,325.113 218.729,324.335 218.933 C 323.860 219.057,323.112 218.967,322.675 218.733 C 322.003 218.373,321.919 218.413,322.139 218.986 M108.800 220.224 C 108.800 221.071,108.962 221.547,109.200 221.400 C 109.420 221.264,109.600 220.623,109.600 219.976 C 109.600 219.329,109.420 218.800,109.200 218.800 C 108.980 218.800,108.800 219.441,108.800 220.224 M105.600 221.154 C 105.600 222.064,104.382 222.526,103.386 221.993 C 101.991 221.246,102.158 220.941,104.000 220.868 C 104.880 220.834,105.600 220.962,105.600 221.154 M108.000 241.120 C 108.000 241.534,107.134 242.400,106.720 242.400 C 106.544 242.400,106.400 242.040,106.400 241.600 C 106.400 241.067,106.667 240.800,107.200 240.800 C 107.640 240.800,108.000 240.944,108.000 241.120 M106.720 242.880 C 107.425 243.585,107.307 244.000,106.400 244.000 C 105.867 244.000,105.600 243.733,105.600 243.200 C 105.600 242.293,106.015 242.175,106.720 242.880 M204.401 263.199 C 204.081 263.796,204.120 264.275,204.556 265.099 C 205.060 266.051,205.176 266.105,205.414 265.495 C 205.565 265.107,205.469 264.524,205.200 264.200 C 204.931 263.876,204.815 263.338,204.943 263.005 C 205.279 262.128,204.902 262.263,204.401 263.199 " stroke="none" fill="#04b0f3" fill-rule="evenodd"></path><path id="path2" d="M221.484 146.400 C 221.325 147.010,220.938 147.200,219.861 147.200 C 219.083 147.200,218.336 147.380,218.200 147.600 C 218.064 147.820,217.434 148.000,216.800 148.000 C 216.166 148.000,215.536 147.820,215.400 147.600 C 214.985 146.928,214.400 147.154,214.400 147.986 C 214.400 149.121,213.323 149.515,210.651 149.360 C 208.096 149.212,204.800 150.629,204.800 151.875 C 204.800 152.205,204.450 152.566,204.022 152.678 C 203.463 152.825,203.209 153.293,203.122 154.341 C 203.026 155.493,202.832 155.800,202.200 155.800 C 201.756 155.800,201.400 156.067,201.400 156.400 C 201.400 156.730,201.715 156.975,202.100 156.944 C 202.971 156.875,202.982 157.136,202.145 158.061 C 201.582 158.683,201.567 158.879,202.045 159.457 C 202.350 159.827,202.600 160.505,202.600 160.965 C 202.600 161.515,202.839 161.781,203.300 161.744 C 203.685 161.714,204.005 161.714,204.011 161.744 C 204.224 162.794,205.552 165.990,205.572 165.500 C 205.587 165.115,205.870 164.800,206.200 164.800 C 206.883 164.800,207.003 165.427,206.393 165.804 C 205.632 166.275,206.475 166.852,207.739 166.726 C 208.504 166.649,208.999 166.783,208.999 167.067 C 209.001 167.913,209.657 168.210,210.133 167.579 C 210.390 167.237,210.960 166.937,211.400 166.910 C 215.923 166.638,216.804 166.823,215.506 167.772 C 214.735 168.336,214.966 168.865,215.837 168.531 C 216.144 168.413,216.296 168.155,216.174 167.958 C 216.052 167.761,216.161 167.600,216.416 167.600 C 216.963 167.600,219.600 165.045,219.600 164.515 C 219.600 164.315,219.915 163.802,220.300 163.375 C 220.685 162.949,221.269 162.060,221.597 161.400 C 221.926 160.740,222.511 159.909,222.897 159.553 C 223.284 159.197,223.600 158.612,223.600 158.253 C 223.600 157.894,223.780 157.600,224.000 157.600 C 224.220 157.600,224.400 157.330,224.400 157.000 C 224.400 156.670,224.580 156.400,224.800 156.400 C 225.020 156.400,225.200 156.130,225.200 155.800 C 225.200 155.470,225.401 155.200,225.647 155.200 C 225.896 155.200,226.001 154.847,225.884 154.400 C 225.769 153.960,225.851 153.600,226.066 153.600 C 226.729 153.600,227.600 152.499,227.600 151.662 C 227.600 151.225,227.825 150.776,228.100 150.665 C 228.466 150.517,228.472 150.455,228.120 150.432 C 227.857 150.414,227.155 151.036,226.562 151.814 C 225.969 152.592,225.285 153.161,225.042 153.079 C 224.380 152.856,224.764 150.716,225.636 149.774 C 226.483 148.858,226.605 148.400,226.000 148.400 C 225.780 148.400,225.600 148.681,225.600 149.024 C 225.600 149.367,225.420 149.536,225.200 149.400 C 224.980 149.264,224.800 148.745,224.800 148.246 C 224.800 146.370,221.912 144.762,221.484 146.400 M180.000 183.238 C 179.010 183.368,177.661 183.696,177.002 183.965 C 176.344 184.234,174.882 184.487,173.754 184.527 C 172.338 184.577,171.760 184.750,171.888 185.083 C 171.994 185.360,171.588 185.684,170.936 185.842 C 169.688 186.145,167.211 188.307,167.204 189.100 C 167.202 189.375,166.934 189.600,166.610 189.600 C 165.947 189.600,164.038 193.479,164.002 194.899 C 163.998 195.063,163.718 195.888,163.381 196.731 C 162.942 197.829,162.876 198.547,163.148 199.264 C 163.426 199.994,163.356 200.619,162.890 201.583 C 162.307 202.787,162.306 202.942,162.885 203.366 C 163.396 203.739,163.486 204.411,163.347 206.815 C 163.251 208.457,163.335 210.160,163.533 210.600 C 163.731 211.040,164.137 211.940,164.434 212.600 C 164.732 213.260,165.476 214.456,166.088 215.258 C 166.699 216.059,167.200 216.917,167.200 217.163 C 167.200 217.409,167.367 217.923,167.571 218.305 C 168.466 219.979,169.600 222.695,169.600 223.165 C 169.600 224.678,171.217 225.959,173.281 226.080 C 175.475 226.208,176.018 226.724,175.015 227.728 C 174.573 228.170,174.525 228.430,174.850 228.631 C 175.100 228.786,175.466 228.626,175.661 228.276 C 175.857 227.926,176.284 227.373,176.609 227.048 C 176.934 226.723,177.200 226.356,177.200 226.233 C 177.200 226.110,177.458 225.692,177.774 225.305 C 179.336 223.387,181.200 220.758,181.200 220.472 C 181.200 220.295,181.522 219.802,181.917 219.375 C 182.311 218.949,184.415 215.990,186.592 212.800 C 197.759 196.438,200.050 193.091,202.518 189.532 C 203.993 187.404,205.200 185.469,205.200 185.232 C 205.200 184.994,205.380 184.800,205.600 184.800 C 206.059 184.800,206.155 183.617,205.700 183.567 C 205.535 183.548,204.950 183.444,204.400 183.334 C 202.932 183.042,182.107 182.959,180.000 183.238 M245.439 218.987 C 245.234 219.804,244.935 220.003,243.892 220.018 C 240.633 220.062,238.362 221.192,235.481 224.200 C 233.389 226.384,233.200 226.660,233.200 227.534 C 233.200 228.010,232.833 228.767,232.384 229.216 C 230.059 231.541,229.836 240.350,232.087 240.939 C 233.108 241.206,232.966 242.611,231.828 243.506 L 230.857 244.271 231.488 246.777 C 232.024 248.906,232.288 249.342,233.240 249.674 C 234.247 250.025,234.373 250.274,234.480 252.132 C 234.583 253.902,234.715 254.197,235.400 254.179 C 236.107 254.160,236.196 254.406,236.165 256.296 C 236.146 257.471,236.281 258.526,236.465 258.640 C 236.938 258.932,236.883 261.901,236.400 262.200 C 235.526 262.740,236.101 263.099,238.190 263.314 C 239.394 263.438,240.784 263.824,241.279 264.170 C 242.061 264.718,242.013 264.971,241.148 264.863 C 241.009 264.846,240.576 265.185,240.186 265.616 C 239.795 266.047,239.234 266.400,238.938 266.400 C 238.642 266.400,238.400 266.672,238.400 267.003 C 238.400 267.500,238.559 267.525,239.300 267.141 C 241.296 266.108,241.643 266.000,242.971 266.000 C 243.731 266.000,244.464 265.820,244.600 265.600 C 244.760 265.341,252.337 265.200,266.024 265.200 C 282.704 265.200,287.198 265.094,287.189 264.700 C 287.173 263.968,285.397 261.738,281.311 257.318 C 279.319 255.163,276.994 252.574,276.145 251.565 C 275.295 250.555,271.360 246.035,267.400 241.519 C 263.440 237.003,259.678 232.699,259.040 231.954 C 258.403 231.209,256.803 229.340,255.485 227.800 C 251.516 223.161,247.292 218.842,247.005 219.129 C 246.856 219.277,246.500 219.078,246.214 218.687 C 245.730 218.025,245.675 218.047,245.439 218.987 M236.239 267.538 C 236.100 267.761,236.182 268.065,236.420 268.212 C 237.035 268.593,237.432 268.072,236.918 267.558 C 236.631 267.271,236.407 267.264,236.239 267.538 " stroke="none" fill="#047fe6" fill-rule="evenodd"></path><path id="path3" d="M214.213 89.979 C 214.070 90.210,213.009 90.400,211.856 90.400 C 209.565 90.400,208.800 90.870,208.800 92.280 L 208.800 93.200 195.433 93.200 C 181.022 93.200,180.800 93.222,180.800 94.619 C 180.800 95.133,180.609 95.671,180.375 95.816 C 179.876 96.124,178.400 94.901,178.400 94.181 C 178.400 93.404,177.402 93.200,173.600 93.200 C 169.798 93.200,168.800 93.404,168.800 94.181 C 168.800 94.869,167.475 96.000,166.669 96.000 C 165.889 96.000,165.806 95.554,166.463 94.897 C 167.123 94.237,166.177 93.200,164.915 93.200 C 164.372 93.200,163.629 92.878,163.264 92.485 C 162.394 91.549,156.000 91.677,156.000 92.630 C 156.000 92.966,155.603 93.200,155.033 93.200 C 154.501 93.200,153.804 93.300,153.485 93.423 C 153.113 93.565,152.820 93.320,152.668 92.738 L 152.431 91.832 151.490 92.716 C 150.279 93.853,148.404 93.900,148.116 92.800 C 147.845 91.764,146.884 91.782,145.755 92.842 C 144.830 93.711,144.000 93.586,144.000 92.576 C 144.000 92.203,143.578 92.000,142.800 92.000 C 142.000 92.000,141.600 92.200,141.600 92.600 C 141.600 92.930,141.420 93.200,141.200 93.200 C 140.980 93.200,140.800 92.930,140.800 92.600 C 140.800 92.267,140.444 92.000,140.000 92.000 C 139.556 92.000,139.200 92.267,139.200 92.600 C 139.200 92.930,138.952 93.200,138.649 93.200 C 138.346 93.200,137.890 93.450,137.637 93.756 C 137.383 94.061,136.361 94.516,135.365 94.767 C 133.828 95.154,133.591 95.343,133.804 96.012 C 134.008 96.656,133.867 96.800,133.027 96.800 C 131.950 96.800,131.728 97.168,132.398 97.838 C 132.894 98.334,133.162 100.859,132.777 101.400 C 131.906 102.622,133.145 103.600,135.564 103.600 C 136.878 103.600,138.064 103.780,138.200 104.000 C 138.586 104.625,140.800 104.491,140.800 103.843 C 140.800 102.543,144.094 102.676,146.062 104.055 C 146.646 104.465,147.315 104.800,147.549 104.800 C 147.783 104.800,147.866 105.085,147.732 105.433 C 147.528 105.965,147.805 106.048,149.483 105.959 C 151.072 105.875,151.666 106.031,152.414 106.727 C 152.929 107.207,153.510 107.600,153.704 107.600 C 154.357 107.600,158.088 111.369,161.028 115.000 C 162.631 116.980,165.801 120.785,168.072 123.456 C 170.342 126.127,175.063 131.707,178.563 135.856 C 182.063 140.005,185.078 143.355,185.263 143.300 C 185.448 143.245,185.555 143.336,185.500 143.502 C 185.318 144.050,193.686 153.994,194.109 153.733 C 194.337 153.592,194.420 153.643,194.294 153.847 C 194.070 154.210,194.797 155.250,198.343 159.641 C 207.358 170.804,213.414 172.945,218.405 166.734 C 219.873 164.907,219.673 164.712,218.060 166.400 C 216.856 167.660,216.167 167.902,215.917 167.152 C 215.785 166.756,214.822 166.704,211.400 166.910 C 210.960 166.937,210.390 167.237,210.133 167.579 C 209.657 168.210,209.001 167.913,208.999 167.067 C 208.999 166.783,208.504 166.649,207.739 166.726 C 206.475 166.852,205.632 166.275,206.393 165.804 C 207.003 165.427,206.883 164.800,206.200 164.800 C 205.870 164.800,205.587 165.115,205.572 165.500 C 205.552 165.990,204.224 162.794,204.011 161.744 C 204.005 161.714,203.685 161.714,203.300 161.744 C 202.839 161.781,202.600 161.515,202.600 160.965 C 202.600 160.505,202.350 159.827,202.045 159.457 C 201.567 158.879,201.582 158.683,202.145 158.061 C 202.982 157.136,202.971 156.875,202.100 156.944 C 201.715 156.975,201.400 156.730,201.400 156.400 C 201.400 156.067,201.756 155.800,202.200 155.800 C 202.836 155.800,203.025 155.492,203.124 154.300 C 203.209 153.273,203.442 152.800,203.862 152.800 C 204.199 152.800,204.568 152.446,204.681 152.013 C 205.072 150.515,208.017 149.207,210.651 149.360 C 213.323 149.515,214.400 149.121,214.400 147.986 C 214.400 147.154,214.985 146.928,215.400 147.600 C 215.536 147.820,216.166 148.000,216.800 148.000 C 217.434 148.000,218.064 147.820,218.200 147.600 C 218.336 147.380,219.083 147.200,219.861 147.200 C 220.938 147.200,221.325 147.010,221.484 146.400 C 221.921 144.728,224.800 146.380,224.800 148.302 C 224.800 148.770,224.980 149.264,225.200 149.400 C 225.420 149.536,225.600 149.367,225.600 149.024 C 225.600 148.681,225.780 148.400,226.000 148.400 C 226.605 148.400,226.483 148.858,225.636 149.774 C 224.764 150.716,224.380 152.856,225.042 153.079 C 225.285 153.161,225.978 152.579,226.583 151.787 C 227.196 150.984,227.916 150.436,228.211 150.549 C 229.016 150.858,230.247 148.809,229.542 148.333 C 229.139 148.060,229.204 147.996,229.800 148.083 C 230.438 148.176,230.580 147.998,230.499 147.200 C 230.428 146.503,230.504 146.365,230.749 146.743 C 231.019 147.160,231.169 147.173,231.401 146.798 C 231.568 146.528,231.457 146.135,231.151 145.918 C 230.716 145.608,230.741 145.569,231.267 145.737 C 231.980 145.964,234.728 141.944,234.467 141.054 C 234.393 140.804,234.465 140.732,234.626 140.893 C 234.787 141.054,236.232 139.254,237.837 136.893 C 246.321 124.416,254.141 116.983,264.040 111.989 C 268.460 109.759,268.948 109.541,271.300 108.746 C 272.125 108.467,272.800 108.095,272.800 107.920 C 272.800 107.744,273.419 107.600,274.176 107.600 C 274.933 107.600,275.664 107.420,275.800 107.200 C 275.936 106.980,276.467 106.800,276.981 106.800 C 277.494 106.800,278.018 106.530,278.145 106.200 C 278.422 105.477,276.420 105.340,275.725 106.035 C 275.412 106.348,275.215 106.348,275.022 106.035 C 274.228 104.751,277.810 103.950,278.694 105.213 C 279.061 105.737,279.707 106.000,280.623 106.000 C 282.162 106.000,282.419 105.452,281.189 104.794 C 280.155 104.241,280.515 103.606,281.700 103.892 C 282.446 104.072,282.513 104.016,282.090 103.564 C 281.675 103.122,281.429 103.114,280.774 103.524 C 279.958 104.033,279.200 103.866,279.200 103.176 C 279.200 102.969,279.538 102.800,279.951 102.800 C 280.364 102.800,280.917 102.541,281.180 102.224 C 281.443 101.907,282.139 101.592,282.726 101.524 C 283.909 101.387,284.524 100.000,283.402 100.000 C 282.928 100.000,282.817 99.778,283.000 99.200 C 283.210 98.539,283.072 98.400,282.209 98.400 C 281.450 98.400,281.197 98.216,281.282 97.725 C 281.367 97.241,281.013 96.968,280.037 96.763 C 279.287 96.605,278.513 96.188,278.317 95.838 C 277.889 95.073,272.446 94.914,271.715 95.645 C 271.211 96.149,270.400 95.797,270.400 95.074 C 270.400 94.429,268.629 93.737,266.212 93.437 C 264.658 93.245,263.906 92.880,262.763 91.764 C 261.396 90.429,261.184 90.353,259.507 90.605 C 258.045 90.824,257.667 90.751,257.460 90.212 C 257.024 89.077,256.400 89.968,256.400 91.724 L 256.400 93.400 242.600 93.290 L 228.800 93.180 228.800 92.270 C 228.800 90.626,228.120 90.400,223.163 90.400 C 218.211 90.400,218.000 90.483,218.000 92.433 C 218.000 93.750,217.036 93.261,216.200 91.519 C 215.373 89.797,214.665 89.248,214.213 89.979 M124.800 102.000 C 124.800 102.220,125.160 102.400,125.600 102.400 C 126.040 102.400,126.400 102.220,126.400 102.000 C 126.400 101.780,126.040 101.600,125.600 101.600 C 125.160 101.600,124.800 101.780,124.800 102.000 M149.000 103.600 C 149.136 103.820,148.887 104.000,148.447 104.000 C 148.007 104.000,147.536 103.820,147.400 103.600 C 147.264 103.380,147.513 103.200,147.953 103.200 C 148.393 103.200,148.864 103.380,149.000 103.600 M120.500 104.293 C 117.812 104.535,118.522 105.084,121.467 105.040 C 123.215 105.014,124.191 104.828,124.300 104.500 C 124.470 103.991,124.088 103.970,120.500 104.293 M288.900 104.291 C 289.725 104.378,291.075 104.378,291.900 104.291 C 292.725 104.205,292.050 104.134,290.400 104.134 C 288.750 104.134,288.075 104.205,288.900 104.291 M283.800 104.800 C 283.936 105.020,284.802 105.197,285.724 105.194 C 286.953 105.189,287.240 105.084,286.800 104.800 C 285.998 104.282,283.480 104.282,283.800 104.800 M83.200 117.062 C 83.200 117.304,83.452 117.711,83.761 117.967 C 84.069 118.223,84.433 118.875,84.568 119.416 C 84.720 120.021,85.102 120.400,85.561 120.400 C 86.192 120.400,86.690 121.149,86.946 122.480 C 86.976 122.634,87.225 122.985,87.500 123.260 C 87.775 123.535,88.000 123.895,88.000 124.059 C 88.000 124.224,88.450 124.844,89.000 125.438 C 89.550 126.031,90.000 126.746,90.000 127.025 C 90.000 127.305,90.225 127.624,90.500 127.735 C 90.900 127.896,90.900 127.943,90.500 127.968 C 89.574 128.027,89.990 129.460,91.100 130.032 C 92.882 130.950,93.104 132.874,92.162 139.247 C 91.981 140.468,92.076 140.727,92.774 140.909 C 93.479 141.093,93.600 141.439,93.600 143.268 C 93.600 145.104,93.729 145.467,94.500 145.811 C 95.082 146.069,95.369 146.512,95.312 147.062 C 95.255 147.618,95.498 147.985,96.012 148.119 C 96.693 148.297,96.800 148.675,96.800 150.901 C 96.800 152.968,96.958 153.619,97.600 154.200 C 98.040 154.598,98.400 155.147,98.400 155.419 C 98.400 155.995,99.504 156.507,100.036 156.178 C 100.236 156.054,100.400 156.672,100.400 157.551 C 100.400 159.053,100.476 159.157,101.669 159.275 C 103.151 159.421,103.666 160.353,102.442 160.673 C 100.697 161.130,101.426 162.400,103.433 162.400 C 105.405 162.400,105.707 163.057,104.074 163.795 C 102.864 164.341,102.795 166.582,104.000 166.200 C 104.862 165.926,105.206 167.302,104.400 167.800 C 103.773 168.188,103.926 168.577,104.874 169.005 C 106.612 169.790,106.234 170.472,104.123 170.360 C 100.987 170.193,100.050 171.821,103.134 172.078 C 104.574 172.198,104.602 172.233,104.720 174.059 C 104.814 175.506,105.013 175.962,105.620 176.121 C 106.748 176.416,106.626 177.934,105.439 178.385 C 103.989 178.936,103.820 179.557,104.828 180.630 C 105.982 181.858,106.400 181.856,106.400 180.624 C 106.400 179.480,107.081 178.921,107.710 179.550 C 108.029 179.869,107.911 180.244,107.275 180.920 C 106.164 182.102,105.898 192.000,106.976 192.000 C 107.974 192.000,108.043 192.699,107.195 194.209 C 106.573 195.316,106.397 196.267,106.467 198.145 C 106.564 200.779,106.305 201.600,105.376 201.600 C 104.496 201.600,104.689 203.078,105.600 203.316 C 106.488 203.548,106.666 204.774,105.920 205.520 C 105.547 205.893,105.547 206.107,105.920 206.480 C 106.496 207.056,106.619 223.783,106.045 223.428 C 105.850 223.307,105.468 223.477,105.196 223.804 C 104.716 224.383,105.041 224.615,106.100 224.447 C 107.076 224.293,105.850 228.163,104.592 229.207 C 103.817 229.850,103.838 230.400,104.637 230.400 C 104.988 230.400,105.369 230.760,105.484 231.200 C 105.599 231.640,105.901 232.000,106.154 232.000 C 106.759 232.000,106.487 238.087,105.865 238.478 C 105.622 238.631,105.578 238.901,105.766 239.078 C 105.955 239.255,106.190 239.175,106.288 238.900 C 106.552 238.162,107.587 238.293,107.872 239.100 C 108.008 239.485,108.466 240.186,108.890 240.658 C 109.999 241.893,109.720 243.757,108.400 243.935 C 107.481 244.059,105.596 245.430,105.603 245.970 C 105.608 246.320,107.665 247.200,108.480 247.200 C 108.876 247.200,109.200 247.380,109.200 247.600 C 109.200 247.820,108.930 248.000,108.600 248.000 C 108.185 248.000,108.000 248.417,108.000 249.351 C 108.000 250.094,107.730 250.926,107.400 251.200 C 106.681 251.796,106.622 252.862,107.271 253.511 C 107.631 253.871,107.585 254.154,107.071 254.722 C 106.053 255.847,106.243 256.702,107.576 256.995 C 108.457 257.188,108.783 257.512,108.876 258.286 C 109.044 259.687,110.143 260.353,111.199 259.694 C 111.916 259.245,112.000 259.293,112.000 260.148 C 112.000 261.125,111.373 261.841,109.857 262.596 C 109.090 262.978,108.989 263.399,108.893 266.611 C 108.834 268.585,108.714 270.402,108.625 270.650 C 108.403 271.269,105.917 271.600,105.288 271.094 C 104.535 270.488,102.800 272.255,102.800 273.627 C 102.800 274.225,102.530 274.818,102.200 274.945 C 101.322 275.281,101.463 276.671,102.400 276.916 C 103.016 277.077,103.200 277.462,103.200 278.590 C 103.200 279.872,103.299 280.022,104.000 279.800 C 104.440 279.660,104.800 279.723,104.800 279.940 C 104.800 280.157,104.909 280.619,105.043 280.967 C 105.202 281.382,105.065 281.600,104.643 281.600 C 104.289 281.600,104.000 281.858,104.000 282.173 C 104.000 282.488,103.640 282.860,103.200 283.000 C 102.313 283.282,102.119 283.966,102.900 284.061 C 105.227 284.345,106.058 284.787,105.798 285.605 C 105.584 286.280,105.771 286.332,107.882 286.186 C 109.157 286.098,109.885 286.123,109.500 286.242 C 108.679 286.496,108.617 286.857,109.280 287.520 C 109.990 288.230,110.982 288.104,111.800 287.200 C 112.198 286.760,112.910 286.400,113.382 286.400 C 113.854 286.400,114.444 286.196,114.693 285.947 C 115.237 285.403,116.561 285.815,116.192 286.413 C 116.049 286.644,115.609 286.730,115.214 286.604 C 114.775 286.465,114.403 286.614,114.260 286.988 C 114.131 287.325,113.760 287.600,113.436 287.600 C 113.112 287.600,112.736 287.780,112.600 288.000 C 112.449 288.244,113.063 288.400,114.176 288.400 C 115.425 288.400,116.000 288.233,116.000 287.869 C 116.000 287.504,116.384 287.395,117.233 287.519 C 117.910 287.619,118.855 287.513,119.333 287.284 C 119.810 287.054,121.055 286.633,122.100 286.346 C 123.145 286.060,124.000 285.685,124.000 285.513 C 124.000 285.341,124.324 285.200,124.720 285.200 C 125.614 285.200,127.593 284.306,127.597 283.900 C 127.599 283.735,127.838 283.600,128.129 283.600 C 131.250 283.600,141.508 276.289,146.858 270.251 C 152.173 264.252,173.531 233.258,172.972 232.354 C 172.845 232.148,172.979 232.030,173.270 232.090 C 173.591 232.157,173.750 231.907,173.673 231.460 C 173.602 231.045,173.722 230.828,173.946 230.966 C 174.165 231.102,174.458 231.030,174.596 230.807 C 174.734 230.583,174.657 230.400,174.424 230.400 C 174.191 230.400,174.000 230.201,174.000 229.957 C 174.000 229.714,174.251 229.611,174.558 229.729 C 174.929 229.871,176.078 228.544,177.982 225.771 C 179.558 223.477,180.755 221.600,180.643 221.600 C 180.530 221.600,179.855 222.455,179.143 223.500 C 178.430 224.545,177.701 225.460,177.523 225.533 C 177.345 225.607,177.200 225.845,177.200 226.062 C 177.200 226.279,176.934 226.723,176.609 227.048 C 176.284 227.373,175.857 227.926,175.661 228.276 C 175.466 228.626,175.100 228.786,174.850 228.631 C 174.525 228.430,174.573 228.170,175.015 227.728 C 176.018 226.724,175.475 226.208,173.281 226.080 C 171.217 225.959,169.600 224.678,169.600 223.165 C 169.600 222.695,168.466 219.979,167.571 218.305 C 167.367 217.923,167.200 217.409,167.200 217.163 C 167.200 216.917,166.699 216.059,166.088 215.258 C 165.476 214.456,164.756 213.305,164.488 212.700 C 164.219 212.095,163.814 211.195,163.587 210.700 C 163.359 210.205,163.251 208.457,163.347 206.815 C 163.486 204.411,163.396 203.739,162.885 203.366 C 162.306 202.942,162.307 202.787,162.890 201.583 C 163.356 200.619,163.426 199.994,163.148 199.264 C 162.872 198.538,162.947 197.815,163.421 196.632 C 163.780 195.734,164.059 194.910,164.042 194.800 C 163.882 193.804,165.959 189.600,166.610 189.600 C 166.934 189.600,167.202 189.375,167.204 189.100 C 167.211 188.307,169.688 186.145,170.936 185.842 C 171.588 185.684,171.994 185.360,171.888 185.083 C 171.760 184.750,172.321 184.581,173.694 184.538 C 174.789 184.504,176.480 184.173,177.451 183.802 C 180.649 182.580,205.231 182.756,206.004 184.006 C 206.198 184.320,206.373 184.247,206.554 183.776 C 206.700 183.396,206.709 182.976,206.575 182.843 C 206.037 182.305,173.859 182.582,172.000 183.141 C 163.318 185.748,160.413 189.997,160.404 200.100 C 160.400 205.559,160.181 206.060,158.663 204.100 C 158.195 203.495,156.364 201.380,154.595 199.400 C 152.826 197.420,149.316 193.460,146.795 190.600 C 144.274 187.740,142.074 185.445,141.906 185.500 C 141.738 185.555,141.645 185.375,141.700 185.100 C 141.755 184.825,141.562 184.649,141.270 184.710 C 140.979 184.770,140.846 184.650,140.974 184.442 C 141.102 184.235,140.556 183.375,139.761 182.532 C 138.965 181.690,137.960 180.503,137.527 179.895 C 137.093 179.288,136.568 178.896,136.360 179.025 C 136.151 179.154,136.030 179.021,136.090 178.730 C 136.151 178.438,135.975 178.245,135.700 178.300 C 135.425 178.355,135.245 178.175,135.300 177.900 C 135.355 177.625,135.162 177.449,134.870 177.510 C 134.579 177.570,134.454 177.437,134.592 177.212 C 134.901 176.713,131.997 173.154,131.521 173.449 C 131.334 173.565,131.230 173.421,131.290 173.130 C 131.351 172.838,131.162 172.649,130.870 172.710 C 130.579 172.770,130.445 172.651,130.572 172.445 C 130.882 171.944,127.264 167.763,126.668 167.933 C 126.411 168.007,126.328 167.939,126.485 167.782 C 126.875 167.392,124.044 164.000,123.328 164.000 C 123.012 164.000,122.854 163.837,122.977 163.637 C 123.269 163.165,117.566 156.559,117.018 156.733 C 116.788 156.807,116.723 156.744,116.873 156.594 C 117.148 156.318,115.097 153.627,111.542 149.600 C 109.741 147.561,105.847 142.992,95.200 130.428 C 85.577 119.073,83.200 116.425,83.200 117.062 M292.625 133.432 C 291.929 134.128,292.125 134.800,293.024 134.800 C 293.372 134.800,293.600 134.404,293.600 133.800 C 293.600 132.629,293.475 132.582,292.625 133.432 M299.439 134.294 C 298.958 134.776,299.220 135.200,300.000 135.200 C 300.440 135.200,300.800 135.039,300.800 134.843 C 300.800 134.393,299.760 133.974,299.439 134.294 M290.861 135.547 C 290.388 135.958,290.000 136.415,290.000 136.563 C 290.000 136.927,288.276 139.366,287.900 139.533 C 287.735 139.607,287.600 139.922,287.600 140.233 C 287.600 140.545,287.420 140.800,287.200 140.800 C 286.980 140.800,286.800 141.190,286.800 141.667 C 286.800 142.143,286.689 142.422,286.552 142.286 C 286.266 142.000,285.200 142.964,285.200 143.509 C 285.200 143.711,284.840 144.202,284.400 144.600 C 283.960 144.998,283.600 145.566,283.600 145.862 C 283.600 146.158,283.420 146.400,283.200 146.400 C 282.980 146.400,282.800 146.670,282.800 147.000 C 282.800 147.330,282.650 147.600,282.468 147.600 C 282.285 147.600,281.880 148.095,281.568 148.700 C 281.256 149.305,280.897 149.890,280.771 150.000 C 280.378 150.341,277.200 155.142,277.200 155.395 C 277.200 155.526,277.017 155.851,276.794 156.117 C 275.909 157.169,271.600 164.007,271.600 164.359 C 271.600 164.565,271.449 164.793,271.264 164.867 C 270.652 165.109,263.600 176.139,263.600 176.853 C 263.600 177.238,263.420 177.664,263.200 177.800 C 262.156 178.445,263.058 178.800,265.740 178.800 C 267.357 178.800,269.202 178.959,269.840 179.154 C 270.478 179.348,272.260 179.725,273.800 179.990 C 276.726 180.495,282.966 182.588,284.000 183.411 C 284.330 183.674,285.482 184.397,286.560 185.017 C 289.088 186.473,294.544 191.687,300.145 198.000 C 310.424 209.585,316.777 216.640,317.465 217.233 C 318.346 217.991,321.200 221.197,321.200 221.428 C 321.200 221.600,322.255 222.926,323.100 223.816 C 323.375 224.106,323.600 224.459,323.600 224.600 C 323.600 224.918,324.659 226.000,324.971 226.000 C 325.097 226.000,325.200 225.789,325.200 225.531 C 325.200 225.274,325.464 224.772,325.786 224.416 C 326.308 223.838,326.277 223.761,325.502 223.703 C 324.297 223.612,322.464 221.200,323.600 221.200 C 323.820 221.200,324.000 221.427,324.000 221.704 C 324.000 221.981,324.360 222.432,324.800 222.707 C 325.637 223.230,325.802 222.917,325.627 221.135 C 325.591 220.770,325.750 220.354,325.981 220.212 C 326.918 219.633,326.432 218.400,325.267 218.400 C 324.643 218.400,324.015 218.282,323.870 218.137 C 323.339 217.605,324.536 216.800,325.858 216.800 C 327.616 216.800,328.328 215.517,327.650 213.571 C 327.393 212.834,327.200 209.670,327.200 206.189 C 327.200 200.090,326.865 198.618,325.647 199.371 C 325.067 199.729,324.592 195.248,325.150 194.690 C 325.774 194.066,325.715 192.800,325.062 192.800 C 323.258 192.800,322.298 187.761,324.016 187.312 C 324.465 187.194,324.779 186.986,324.712 186.849 C 324.646 186.712,324.198 185.774,323.716 184.765 C 323.234 183.756,322.561 182.699,322.220 182.416 C 321.835 182.097,321.600 181.247,321.600 180.175 C 321.600 179.225,321.420 178.336,321.200 178.200 C 320.980 178.064,320.800 177.333,320.800 176.576 C 320.800 175.495,320.638 175.200,320.047 175.200 C 319.258 175.200,318.815 176.213,318.805 178.038 C 318.800 179.061,317.732 180.400,316.921 180.400 C 316.475 180.400,316.012 178.225,316.004 176.100 C 315.999 174.635,316.225 174.517,317.251 175.446 C 318.688 176.747,319.592 174.941,318.716 172.518 C 318.215 171.132,315.541 170.676,314.100 171.732 C 313.743 171.993,313.600 171.862,313.600 171.273 C 313.600 170.819,313.420 170.336,313.200 170.200 C 312.980 170.064,312.800 169.513,312.800 168.976 C 312.800 168.439,312.980 168.000,313.200 168.000 C 313.420 168.000,313.600 167.820,313.600 167.600 C 313.600 167.380,313.240 167.200,312.800 167.200 C 312.340 167.200,312.000 167.467,312.000 167.827 C 312.000 168.532,310.434 168.247,309.906 167.446 C 309.362 166.620,309.554 163.600,310.151 163.600 C 311.242 163.600,311.562 162.675,311.087 160.895 C 310.742 159.601,310.478 159.248,309.974 159.408 C 309.610 159.524,309.084 159.342,308.803 159.004 C 308.416 158.537,308.163 158.498,307.747 158.844 C 307.303 159.212,307.200 159.052,307.200 158.000 C 307.200 156.853,307.275 156.764,307.843 157.236 C 308.390 157.690,308.570 157.655,309.043 157.008 C 309.812 155.957,309.757 155.697,308.500 154.431 C 307.895 153.822,306.997 152.486,306.505 151.462 C 306.013 150.438,305.334 149.600,304.995 149.600 C 304.147 149.600,303.600 147.955,303.600 145.407 C 303.600 142.671,303.350 142.036,302.374 142.291 C 301.789 142.444,301.600 142.287,301.600 141.647 C 301.600 141.067,301.348 140.800,300.800 140.800 C 300.267 140.800,300.000 140.533,300.000 140.000 C 300.000 139.467,300.267 139.200,300.800 139.200 C 301.333 139.200,301.600 139.467,301.600 140.000 C 301.600 140.533,301.867 140.800,302.400 140.800 C 302.933 140.800,303.200 140.533,303.200 140.000 C 303.200 139.527,302.933 139.200,302.547 139.200 C 302.188 139.200,301.533 138.795,301.093 138.300 C 300.550 137.690,300.235 137.561,300.113 137.900 C 300.014 138.175,299.588 138.400,299.167 138.400 C 298.745 138.400,298.400 138.580,298.400 138.800 C 298.400 139.533,294.007 139.285,293.720 138.536 C 293.504 137.974,293.414 138.009,293.133 138.769 C 292.779 139.726,291.952 139.729,291.695 138.775 C 291.564 138.293,291.605 138.295,291.948 138.788 C 292.173 139.112,292.501 139.232,292.678 139.056 C 292.854 138.879,292.710 138.524,292.358 138.266 C 291.433 137.590,291.043 136.072,291.616 135.381 C 292.290 134.568,291.887 134.657,290.861 135.547 M295.100 136.676 C 293.942 136.978,294.311 137.600,295.649 137.600 C 296.714 137.600,296.825 137.512,296.400 137.000 C 296.126 136.670,295.879 136.421,295.851 136.446 C 295.823 136.472,295.485 136.575,295.100 136.676 M227.606 151.700 C 227.611 152.428,227.686 152.485,228.000 152.000 C 228.501 151.224,228.501 150.800,228.000 150.800 C 227.780 150.800,227.603 151.205,227.606 151.700 M226.800 153.133 C 226.800 153.390,226.536 153.600,226.213 153.600 C 225.847 153.600,225.715 153.834,225.862 154.218 C 226.061 154.735,226.196 154.698,226.691 153.992 C 227.016 153.528,227.173 153.040,227.041 152.907 C 226.908 152.775,226.800 152.877,226.800 153.133 M222.600 159.761 C 222.023 160.453,221.200 161.939,221.200 162.287 C 221.200 162.451,221.666 161.900,222.236 161.062 C 223.213 159.623,223.466 158.722,222.600 159.761 M220.069 163.639 C 219.310 164.854,219.766 165.016,220.555 163.812 C 220.920 163.256,221.078 162.800,220.905 162.800 C 220.733 162.800,220.357 163.178,220.069 163.639 M99.200 167.661 C 99.200 167.847,99.470 168.000,99.800 168.000 C 100.130 168.000,100.400 168.180,100.400 168.400 C 100.400 168.620,100.670 168.800,101.000 168.800 C 101.330 168.800,101.600 168.452,101.600 168.027 C 101.600 167.427,101.331 167.261,100.400 167.288 C 99.740 167.306,99.200 167.474,99.200 167.661 M215.962 168.424 C 215.674 168.602,215.275 168.647,215.076 168.524 C 214.877 168.401,214.950 168.154,215.238 167.976 C 215.526 167.798,215.925 167.753,216.124 167.876 C 216.323 167.999,216.250 168.246,215.962 168.424 M204.937 185.804 C 204.683 186.352,204.637 186.701,204.835 186.578 C 205.363 186.252,206.082 184.799,205.714 184.803 C 205.541 184.805,205.192 185.255,204.937 185.804 M198.800 194.800 C 198.330 195.460,198.036 196.000,198.146 196.000 C 198.256 196.000,198.730 195.460,199.200 194.800 C 199.670 194.140,199.964 193.600,199.854 193.600 C 199.744 193.600,199.270 194.140,198.800 194.800 M238.491 216.267 C 236.990 216.479,233.914 219.291,231.346 222.800 C 228.615 226.531,223.600 233.918,223.600 234.209 C 223.600 234.361,223.085 235.141,222.455 235.942 C 221.825 236.744,221.032 237.940,220.693 238.600 C 220.354 239.260,219.744 240.193,219.338 240.673 C 218.932 241.154,217.880 242.725,217.000 244.165 C 216.120 245.604,215.265 246.787,215.100 246.791 C 214.935 246.796,214.800 246.987,214.800 247.215 C 214.800 247.444,213.720 249.237,212.400 251.200 C 211.080 253.163,210.000 254.956,210.000 255.185 C 210.000 255.413,209.820 255.600,209.600 255.600 C 209.380 255.600,209.200 255.870,209.200 256.200 C 209.200 256.530,209.041 256.800,208.846 256.800 C 208.651 256.800,208.196 257.422,207.836 258.181 C 207.475 258.941,206.959 259.796,206.689 260.081 C 205.423 261.419,204.639 263.525,205.170 264.164 C 205.458 264.511,205.567 265.104,205.414 265.495 C 205.177 266.101,205.054 266.041,204.538 265.065 C 203.790 263.650,203.513 263.864,203.858 265.589 C 204.018 266.389,204.412 266.983,204.861 267.100 C 205.844 267.357,205.800 268.265,204.778 268.812 C 203.770 269.351,203.761 272.695,204.768 272.477 C 205.244 272.375,205.250 272.458,204.804 272.996 C 204.511 273.348,204.031 273.544,203.736 273.431 C 203.377 273.293,203.200 273.552,203.200 274.213 C 203.200 274.756,203.393 275.200,203.628 275.200 C 203.863 275.200,203.998 275.605,203.928 276.100 C 203.845 276.683,203.564 276.961,203.130 276.889 C 202.762 276.829,202.346 276.964,202.207 277.189 C 202.067 277.415,202.208 277.600,202.521 277.600 C 202.910 277.600,203.029 277.913,202.899 278.593 C 202.612 280.097,203.097 281.480,203.996 281.715 C 204.776 281.919,205.078 283.331,204.859 285.753 C 204.821 286.168,204.981 286.737,205.215 287.018 C 205.510 287.373,205.511 287.608,205.219 287.788 C 204.195 288.421,204.782 289.600,206.122 289.600 C 207.106 289.600,207.788 289.956,208.797 290.997 C 210.099 292.340,210.188 292.369,211.120 291.758 C 211.732 291.357,212.627 291.188,213.545 291.299 C 214.345 291.395,215.493 291.336,216.096 291.166 C 216.847 290.955,217.288 291.021,217.496 291.377 C 218.463 293.028,220.991 291.750,221.799 289.202 C 221.939 288.761,222.222 288.400,222.427 288.400 C 222.632 288.400,222.800 288.130,222.800 287.800 C 222.800 287.470,222.980 287.200,223.200 287.200 C 223.420 287.200,223.600 286.840,223.600 286.400 C 223.600 285.960,223.750 285.600,223.932 285.600 C 224.115 285.600,224.517 285.105,224.826 284.500 C 228.163 277.956,234.936 269.782,238.600 267.877 C 239.700 267.305,240.321 266.829,239.980 266.819 C 239.639 266.808,239.144 267.016,238.880 267.280 C 238.507 267.653,238.400 267.609,238.400 267.080 C 238.400 266.706,238.642 266.400,238.938 266.400 C 239.234 266.400,239.795 266.047,240.186 265.616 C 240.576 265.185,241.009 264.846,241.148 264.863 C 242.013 264.971,242.061 264.718,241.279 264.170 C 240.784 263.824,239.394 263.438,238.190 263.314 C 236.101 263.099,235.526 262.740,236.400 262.200 C 236.883 261.901,236.938 258.932,236.465 258.640 C 236.281 258.526,236.146 257.471,236.165 256.296 C 236.196 254.406,236.107 254.160,235.400 254.179 C 234.715 254.197,234.583 253.902,234.480 252.132 C 234.373 250.274,234.247 250.025,233.240 249.674 C 232.288 249.342,232.024 248.906,231.488 246.777 L 230.857 244.271 231.828 243.506 C 232.966 242.611,233.108 241.206,232.087 240.939 C 229.836 240.350,230.059 231.541,232.384 229.216 C 232.833 228.767,233.200 228.010,233.200 227.534 C 233.200 226.660,233.389 226.384,235.481 224.200 C 238.362 221.192,240.633 220.062,243.892 220.018 C 244.935 220.003,245.234 219.804,245.439 218.987 C 245.668 218.074,245.742 218.041,246.186 218.648 C 246.457 219.019,246.847 219.218,247.053 219.091 C 247.259 218.964,247.846 219.386,248.358 220.030 C 248.871 220.673,249.441 221.200,249.625 221.200 C 250.108 221.200,247.658 218.705,245.914 217.421 C 244.381 216.292,241.493 215.843,238.491 216.267 M324.335 218.933 C 325.113 218.729,325.199 218.862,325.187 220.253 L 325.173 221.800 324.388 220.857 C 323.928 220.305,323.352 220.009,323.001 220.144 C 322.670 220.271,322.400 220.215,322.400 220.020 C 322.400 219.825,322.283 219.360,322.139 218.986 C 321.919 218.413,322.003 218.373,322.675 218.733 C 323.112 218.967,323.860 219.057,324.335 218.933 M109.600 219.976 C 109.600 220.623,109.420 221.264,109.200 221.400 C 108.962 221.547,108.800 221.071,108.800 220.224 C 108.800 219.441,108.980 218.800,109.200 218.800 C 109.420 218.800,109.600 219.329,109.600 219.976 M102.400 221.198 C 102.400 221.898,104.375 222.519,104.986 222.011 C 106.003 221.168,105.688 220.802,104.000 220.868 C 103.120 220.903,102.400 221.051,102.400 221.198 M251.200 223.000 C 251.946 223.770,252.647 224.400,252.757 224.400 C 252.867 224.400,252.346 223.770,251.600 223.000 C 250.854 222.230,250.153 221.600,250.043 221.600 C 249.933 221.600,250.454 222.230,251.200 223.000 M106.400 241.600 C 106.400 242.507,106.815 242.625,107.520 241.920 C 108.225 241.215,108.107 240.800,107.200 240.800 C 106.667 240.800,106.400 241.067,106.400 241.600 M105.600 243.200 C 105.600 243.733,105.867 244.000,106.400 244.000 C 107.307 244.000,107.425 243.585,106.720 242.880 C 106.015 242.175,105.600 242.293,105.600 243.200 M281.600 257.725 C 281.600 257.794,282.185 258.379,282.900 259.025 L 284.200 260.200 283.025 258.900 C 281.930 257.688,281.600 257.416,281.600 257.725 M287.200 264.733 C 287.200 265.083,281.891 265.200,266.024 265.200 C 254.377 265.200,244.764 265.335,244.662 265.500 C 244.383 265.950,286.916 265.644,287.367 265.193 C 287.576 264.984,287.624 264.690,287.473 264.540 C 287.323 264.390,287.200 264.477,287.200 264.733 M241.015 266.376 C 240.876 266.601,241.391 266.659,242.291 266.520 C 244.300 266.210,244.461 266.000,242.690 266.000 C 241.897 266.000,241.143 266.169,241.015 266.376 M237.100 268.233 C 236.719 268.615,235.955 267.997,236.239 267.538 C 236.407 267.264,236.631 267.271,236.918 267.558 C 237.154 267.794,237.236 268.098,237.100 268.233 M107.600 289.433 L 106.600 289.988 107.620 289.994 C 108.181 289.997,108.811 289.834,109.020 289.631 C 109.229 289.428,109.940 289.185,110.600 289.091 C 111.565 288.953,111.487 288.916,110.200 288.899 C 109.320 288.888,108.150 289.128,107.600 289.433 " stroke="none" fill="#0491e9" fill-rule="evenodd"></path><path id="path4" d="M295.200 104.234 C 270.121 106.369,256.541 113.026,242.944 129.849 C 240.380 133.022,231.358 146.530,224.809 157.000 C 214.090 174.140,210.456 174.603,198.892 160.303 C 191.364 150.994,185.366 143.820,167.202 122.400 C 154.847 107.830,154.270 107.289,150.062 106.321 C 147.535 105.739,78.776 105.545,76.700 106.114 C 74.950 106.593,75.350 107.501,79.306 112.023 C 84.100 117.505,90.926 125.418,95.848 131.200 C 98.002 133.730,101.992 138.410,104.716 141.600 C 107.440 144.790,110.812 148.750,112.209 150.400 C 116.799 155.820,131.516 172.961,140.372 183.200 C 143.131 186.390,148.181 192.150,151.594 196.000 C 155.007 199.850,158.186 203.495,158.658 204.100 C 160.148 206.011,160.350 205.525,160.109 200.623 C 159.628 190.860,163.335 185.365,171.875 183.181 C 175.683 182.207,206.815 181.956,206.783 182.900 C 206.756 183.714,205.628 185.526,201.400 191.548 C 199.200 194.682,197.130 197.664,196.800 198.176 C 196.470 198.687,194.792 201.152,193.072 203.653 C 184.595 215.977,175.265 229.724,165.284 244.600 C 153.083 262.785,151.410 265.114,146.858 270.251 C 138.636 279.529,127.949 285.470,113.578 288.750 C 105.944 290.492,105.817 290.536,105.677 291.488 C 105.497 292.714,107.765 293.267,122.000 295.474 C 129.953 296.707,150.886 296.475,158.068 295.074 C 179.159 290.960,192.768 281.154,206.190 260.400 C 227.025 228.181,235.186 216.886,238.238 216.038 C 243.555 214.562,245.747 216.073,256.221 228.436 C 259.070 231.798,262.764 236.091,264.432 237.975 C 266.099 239.859,269.406 243.650,271.780 246.400 C 274.154 249.150,277.759 253.200,279.790 255.400 C 286.574 262.747,287.877 264.427,287.395 265.208 C 287.242 265.456,279.677 265.600,266.876 265.600 C 236.235 265.601,236.160 265.634,225.332 283.838 C 223.263 287.316,220.937 290.655,219.716 291.898 C 216.162 295.517,211.156 295.200,271.798 295.200 C 324.105 295.200,325.536 295.180,326.456 294.435 L 327.400 293.669 327.443 270.935 C 327.527 226.900,327.940 229.075,317.216 217.200 C 314.533 214.230,308.690 207.660,304.230 202.600 C 287.714 183.863,280.309 179.215,266.950 179.202 C 261.092 179.196,260.070 181.453,279.328 151.877 C 292.474 131.689,299.593 124.011,310.031 118.765 C 315.682 115.925,319.085 114.784,327.877 112.782 C 328.800 112.572,330.656 112.400,332.003 112.400 C 334.633 112.400,336.000 111.920,336.000 110.995 C 336.000 107.711,308.295 103.120,295.200 104.234 M315.200 105.524 C 318.328 105.918,323.454 106.902,326.200 107.635 C 336.908 110.497,337.694 111.210,330.900 111.898 C 307.232 114.294,293.779 125.978,270.600 164.274 C 270.380 164.638,268.662 167.290,266.781 170.167 C 263.488 175.208,262.000 177.871,262.000 178.725 C 262.000 179.185,263.389 179.449,268.800 180.019 C 282.426 181.453,287.929 184.826,300.743 199.600 C 303.510 202.790,305.870 205.490,305.987 205.600 C 306.104 205.710,307.546 207.330,309.192 209.200 C 310.838 211.070,313.102 213.590,314.223 214.800 C 322.376 223.596,324.054 225.855,325.859 230.463 C 326.776 232.803,327.214 292.522,326.323 293.678 C 325.740 294.434,287.424 294.811,240.422 294.522 L 218.243 294.386 220.051 292.493 C 221.045 291.452,222.639 289.340,223.592 287.800 C 224.546 286.260,225.747 284.329,226.263 283.509 C 226.778 282.688,227.200 281.928,227.200 281.819 C 227.200 279.623,235.798 269.952,239.200 268.321 C 243.426 266.296,243.670 266.276,266.272 266.108 C 289.930 265.932,289.105 266.039,287.320 263.374 C 286.396 261.994,280.894 255.657,279.182 254.000 C 278.841 253.670,276.434 250.970,273.834 248.000 C 267.501 240.768,268.165 241.535,259.746 231.695 C 246.902 216.682,245.205 215.200,240.857 215.200 C 236.905 215.200,234.728 216.827,230.382 223.031 C 229.751 223.932,204.282 262.113,203.485 263.354 C 190.416 283.684,173.402 293.526,147.666 295.644 C 138.493 296.399,123.779 295.510,114.200 293.621 C 113.100 293.404,111.390 293.116,110.400 292.980 C 104.656 292.194,105.582 290.766,112.600 289.589 C 118.153 288.657,126.296 285.790,131.483 282.940 C 132.938 282.140,134.505 281.283,134.965 281.036 C 139.276 278.715,144.804 273.872,148.930 268.800 C 150.273 267.150,151.476 265.710,151.605 265.600 C 151.733 265.490,152.274 264.770,152.806 264.000 C 153.338 263.230,153.960 262.401,154.187 262.157 C 154.513 261.807,178.378 226.300,180.800 222.560 C 181.440 221.572,187.374 212.921,195.040 201.800 C 206.139 185.698,208.071 182.711,207.653 182.293 C 207.002 181.642,180.742 181.382,175.633 181.976 C 164.578 183.262,159.421 188.763,159.435 199.257 C 159.441 204.180,159.483 204.164,156.301 200.470 C 155.037 199.001,153.291 197.023,152.422 196.072 C 151.553 195.122,148.807 191.982,146.321 189.094 C 143.834 186.207,141.065 183.024,140.166 182.022 C 139.268 181.020,135.218 176.342,131.166 171.627 C 119.975 158.603,118.595 156.989,113.200 150.606 C 110.450 147.352,108.014 144.490,107.787 144.245 C 107.560 144.000,105.859 142.000,104.007 139.800 C 102.155 137.600,99.550 134.532,98.220 132.981 C 96.889 131.431,94.990 129.187,94.000 127.996 C 93.010 126.804,91.646 125.192,90.968 124.414 C 90.291 123.636,89.277 122.460,88.715 121.800 C 85.189 117.656,79.802 111.476,78.081 109.600 C 76.758 108.158,76.196 107.262,76.451 107.000 C 77.051 106.383,146.761 106.216,149.600 106.825 C 152.369 107.419,155.481 109.461,157.688 112.132 C 158.627 113.269,159.614 114.429,159.880 114.710 C 160.145 114.990,161.046 116.070,161.881 117.110 C 162.717 118.149,163.490 119.090,163.600 119.200 C 163.909 119.509,166.401 122.405,168.437 124.820 C 169.447 126.019,172.417 129.521,175.037 132.603 C 177.657 135.685,181.150 139.825,182.799 141.803 C 184.449 143.781,185.896 145.490,186.016 145.600 C 186.504 146.049,194.462 155.685,197.579 159.600 C 204.153 167.859,207.640 170.511,212.000 170.570 C 216.677 170.633,217.677 169.607,226.005 156.200 C 228.055 152.900,231.683 147.252,234.066 143.649 C 236.450 140.046,238.400 137.032,238.400 136.951 C 238.400 136.594,243.639 129.894,246.338 126.800 C 253.115 119.030,260.056 114.064,269.800 110.013 C 272.084 109.064,277.420 107.481,280.600 106.809 C 281.920 106.531,283.630 106.146,284.400 105.954 C 285.170 105.762,286.700 105.582,287.800 105.555 C 288.900 105.528,290.340 105.361,291.000 105.185 C 292.555 104.770,311.297 105.032,315.200 105.524 " stroke="none" fill="#5cb4e5" fill-rule="evenodd"></path></g></svg>