<?xml version="1.0" standalone="no"?>
<!DOCTYPE svg PUBLIC "-//W3C//DTD SVG 20010904//EN"
 "http://www.w3.org/TR/2001/REC-SVG-20010904/DTD/svg10.dtd">
<svg version="1.0" xmlns="http://www.w3.org/2000/svg"
 width="500.000000pt" height="500.000000pt" viewBox="0 0 500.000000 500.000000"
 preserveAspectRatio="xMidYMid meet">

<g transform="translate(0.000000,500.000000) scale(0.100000,-0.100000)"
fill="#000000" stroke="none">
<path d="M3090 3665 c0 -14 -13 -16 -82 -16 -113 1 -218 -9 -218 -20 0 -5 -5
-9 -11 -9 -5 0 -7 5 -4 10 3 6 2 10 -4 10 -5 0 -11 -4 -13 -10 -6 -17 -52 -18
-66 -1 -10 12 -15 13 -18 4 -3 -7 -19 -13 -36 -13 -23 0 -29 -4 -24 -15 4 -12
-4 -15 -44 -15 -36 0 -50 4 -50 14 0 14 -48 28 -64 18 -5 -3 -34 -4 -63 -3
-43 2 -53 -1 -53 -13 0 -9 -4 -16 -10 -16 -5 0 -7 7 -4 15 4 8 1 15 -5 15 -6
0 -11 -7 -11 -15 0 -8 -9 -15 -20 -15 -12 0 -20 7 -20 16 0 14 -10 16 -75 12
-41 -3 -72 -1 -69 4 7 11 -7 10 -26 -2 -12 -7 -12 -12 -2 -22 16 -16 15 -28
-4 -28 -9 0 -12 -5 -8 -11 11 -18 -48 -1 -61 18 -10 13 -14 13 -20 3 -5 -9 -4
-11 3 -6 7 4 12 1 12 -8 0 -9 4 -16 10 -16 5 0 9 -4 7 -9 -1 -5 9 -21 23 -37
53 -61 298 -353 364 -434 128 -157 179 -200 236 -200 30 0 75 46 126 128 175
282 271 413 366 500 21 19 35 39 31 45 -3 5 -1 7 5 3 14 -8 101 45 102 62 0 9
7 11 23 7 18 -6 20 -5 10 6 -10 10 -23 7 -68 -16 -31 -15 -58 -25 -62 -21 -3
3 -1 6 6 6 20 0 36 23 37 52 2 24 -2 26 -44 30 -28 2 -50 -2 -58 -9 -14 -15
-38 -18 -29 -4 3 5 1 12 -5 16 -5 3 -10 -1 -10 -10z"/>
<path d="M1167 3373 c10 -16 26 -37 35 -47 10 -10 15 -22 13 -26 -2 -4 7 -12
22 -19 14 -6 23 -15 19 -18 -3 -4 1 -14 9 -23 9 -10 15 -23 13 -31 -2 -7 2
-13 8 -14 10 0 102 -85 92 -85 -2 0 17 -23 43 -50 34 -36 46 -57 45 -75 -2
-13 0 -22 5 -20 4 3 10 -1 12 -7 4 -10 6 -10 6 0 1 6 5 12 11 12 5 0 7 -6 4
-14 -3 -8 0 -17 5 -21 6 -3 9 -11 6 -16 -6 -8 8 -13 28 -10 4 1 2 -7 -4 -17
-9 -15 -8 -31 6 -75 10 -32 22 -57 26 -57 5 0 9 -7 9 -16 0 -8 5 -12 10 -9 6
3 10 -2 10 -13 0 -22 35 -98 50 -107 5 -3 10 -21 10 -40 0 -18 6 -36 13 -39
10 -5 10 -7 0 -12 -7 -3 -13 -18 -13 -34 0 -16 6 -31 13 -34 10 -5 10 -7 0
-12 -7 -3 -13 -14 -13 -25 0 -10 -5 -19 -11 -19 -8 0 -8 -5 1 -15 9 -10 9 -15
1 -15 -6 0 -11 -7 -11 -15 0 -8 5 -15 10 -15 6 0 10 -62 10 -165 0 -103 -4
-165 -10 -165 -14 0 -12 -27 3 -33 10 -4 10 -7 0 -18 -7 -7 -13 -32 -13 -55 0
-24 -5 -46 -10 -49 -8 -5 -8 -11 0 -20 8 -10 8 -15 0 -20 -6 -4 -10 -29 -9
-57 2 -33 -2 -52 -11 -58 -9 -6 -11 -21 -7 -54 5 -37 4 -46 -8 -46 -8 0 -15
-9 -15 -21 0 -11 -4 -17 -10 -14 -5 3 -10 0 -10 -9 0 -8 -6 -17 -12 -19 -10
-4 -10 -6 0 -6 6 -1 12 -8 12 -16 0 -20 34 -19 65 1 35 23 34 -4 0 -30 -14
-10 -25 -24 -25 -30 0 -7 3 -7 8 -1 4 6 14 11 22 13 39 9 134 79 196 145 40
42 136 173 226 307 159 238 188 280 398 586 65 94 123 181 130 193 l11 22
-223 -3 c-209 -3 -226 -4 -265 -26 -68 -36 -92 -81 -95 -179 -2 -46 -5 -83 -8
-82 -3 0 -28 28 -57 62 -29 34 -93 109 -143 167 -50 58 -191 222 -313 365
-122 143 -240 279 -263 302 -22 24 -39 43 -36 43 2 0 -1 7 -8 15 -21 26 -31
16 -13 -12z m523 -1848 c-7 -8 -17 -12 -22 -9 -6 4 -5 10 3 15 22 14 33 10 19
-6z"/>
<path d="M3495 3103 c-11 -25 -15 -46 -7 -38 4 4 7 10 7 13 0 4 4 13 9 20 4 7
6 15 3 18 -2 3 -8 -3 -12 -13z"/>
<path d="M3570 3060 c0 -5 5 -10 11 -10 5 0 7 5 4 10 -3 6 -8 10 -11 10 -2 0
-4 -4 -4 -10z"/>
<path d="M3496 2999 c-9 -14 -21 -19 -31 -15 -9 3 -14 2 -10 -3 3 -5 2 -11 -2
-14 -5 -2 -1 -2 7 0 8 1 -3 -13 -25 -32 -21 -20 -45 -33 -53 -30 -10 3 -12 0
-8 -10 3 -8 2 -14 -2 -14 -20 3 -32 -2 -27 -11 4 -6 11 -7 17 -4 7 4 8 2 4 -5
-4 -6 -11 -9 -16 -6 -9 6 -53 -45 -45 -53 2 -3 12 1 22 9 15 12 16 12 8 -1 -6
-8 -10 -19 -10 -24 0 -5 -9 -13 -20 -18 -14 -6 -10 -7 17 -4 20 3 50 1 65 -4
15 -5 55 -16 88 -25 84 -24 128 -55 223 -152 45 -48 82 -81 82 -74 0 6 -6 14
-14 17 -12 5 -13 11 -4 30 12 26 24 31 31 12 4 -10 7 -10 18 0 11 11 10 14 -9
18 -12 4 -22 13 -22 20 0 15 -12 19 -23 7 -4 -3 -3 -11 2 -17 6 -7 4 -16 -5
-24 -14 -13 -15 -12 -18 11 -1 6 -8 10 -16 9 -8 -2 -11 0 -7 5 5 4 14 8 20 8
7 0 13 12 15 28 4 29 22 38 22 11 0 -10 6 -14 15 -10 9 3 15 0 15 -9 0 -8 6
-12 14 -9 12 5 11 12 -4 45 -9 22 -23 46 -29 52 -6 6 -11 21 -11 34 0 13 -9
31 -20 40 -11 10 -20 23 -20 30 0 7 -4 13 -10 13 -5 0 -10 7 -10 15 0 32 -40
85 -63 85 -16 0 -27 20 -28 53 0 12 -3 16 -6 9 -4 -10 -10 -9 -26 5 -11 10
-17 13 -14 6 4 -6 3 -14 -3 -18 -5 -3 -10 3 -10 14 0 29 -44 28 -64 0z m169
-99 c3 -5 1 -10 -4 -10 -6 0 -11 5 -11 10 0 6 2 10 4 10 3 0 8 -4 11 -10z
m-10 -220 c-3 -5 -12 -10 -18 -10 -7 0 -6 4 3 10 19 12 23 12 15 0z m85 -10
c0 -5 -7 -10 -15 -10 -8 0 -15 5 -15 10 0 6 7 10 15 10 8 0 15 -4 15 -10z
m-30 -45 c0 -12 -19 -12 -23 0 -4 9 -1 12 9 8 7 -3 14 -7 14 -8z"/>
<path d="M3416 2964 c-9 -23 -8 -24 12 -23 9 0 12 3 5 5 -7 3 -9 12 -6 20 3 8
3 14 0 14 -3 0 -8 -7 -11 -16z"/>
<path d="M3390 2919 c0 -5 5 -7 10 -4 6 3 10 8 10 11 0 2 -4 4 -10 4 -5 0 -10
-5 -10 -11z"/>
<path d="M3740 2809 c0 -5 5 -7 10 -4 6 3 10 8 10 11 0 2 -4 4 -10 4 -5 0 -10
-5 -10 -11z"/>
<path d="M3786 2505 c-9 -23 -8 -25 9 -25 8 0 15 -6 15 -14 0 -13 63 -76 76
-76 3 0 -3 11 -13 24 -10 13 -22 23 -28 23 -5 -1 -9 3 -10 8 0 6 -9 25 -21 44
-17 27 -22 30 -28 16z"/>
<path d="M3905 2351 c17 -16 32 -27 35 -24 5 4 -49 53 -59 53 -3 0 8 -13 24
-29z"/>
<path d="M2983 2293 c-13 -2 -36 -18 -53 -35 -56 -55 -273 -388 -254 -388 4 0
-1 -10 -12 -22 -10 -12 -14 -18 -7 -15 21 13 19 -15 -4 -61 -13 -25 -23 -54
-23 -65 0 -34 23 -87 38 -87 11 0 13 -9 8 -40 -5 -33 -3 -43 14 -57 11 -10 20
-23 20 -30 0 -7 12 -11 29 -10 16 1 29 7 28 12 -1 6 4 9 11 7 6 -1 12 4 12 11
0 8 9 13 23 12 17 -2 21 -8 19 -26 -2 -17 6 -11 30 26 40 60 88 109 131 132
28 16 70 19 321 23 l289 5 -29 35 c-15 19 -65 76 -109 125 -45 50 -139 158
-210 240 -197 228 -191 224 -272 208z"/>
<path d="M1575 1450 c-3 -5 -1 -10 4 -10 6 0 11 5 11 10 0 6 -2 10 -4 10 -3 0
-8 -4 -11 -10z"/>
</g>
</svg>
